<svg xmlns="http://www.w3.org/2000/svg" width="1024" height="1024" viewBox="0 0 1024 1024" role="img" aria-label="Synapse logo">
  <defs>
    <radialGradient id="bgGlow" cx="50%" cy="38%" r="72%">
      <stop offset="0%" stop-color="#123a52"/>
      <stop offset="58%" stop-color="#0a1d2d"/>
      <stop offset="100%" stop-color="#06111b"/>
    </radialGradient>
    <filter id="greyGlow1024">
      <feGaussianBlur stdDeviation="14" result="blur"/>
      <feMerge><feMergeNode in="blur"/><feMergeNode in="SourceGraphic"/></feMerge>
    </filter>
    <filter id="greyEdgeGlow1024">
      <feGaussianBlur stdDeviation="10" result="blur"/>
      <feMerge><feMergeNode in="blur"/><feMergeNode in="SourceGraphic"/></feMerge>
    </filter>
    <filter id="greenGlow1024">
      <feGaussianBlur stdDeviation="14" result="blur"/>
      <feMerge><feMergeNode in="blur"/><feMergeNode in="SourceGraphic"/></feMerge>
    </filter>
    <filter id="edgeGreenGlow1024">
      <feGaussianBlur stdDeviation="8" result="blur"/>
      <feMerge><feMergeNode in="blur"/><feMergeNode in="SourceGraphic"/></feMerge>
    </filter>
    <style>
      .sn1{animation:sIn1 .4s ease-out forwards;opacity:0}
      .se1{animation:sIn1 .3s ease-out forwards;opacity:0}
      @keyframes sIn1{to{opacity:1}}
    </style>
  </defs>

  <rect width="1024" height="1024" rx="230" fill="#06111b"/>
  <rect x="56" y="56" width="912" height="912" rx="206" fill="url(#bgGlow)"/>

  <!-- Grey edges (connecting grey and green nodes) -->
  <g stroke="#e8eaed" stroke-linecap="round" filter="url(#greyEdgeGlow1024)">
    <line x1="128" y1="128" x2="240" y2="272" stroke-width="22" stroke-opacity="0.3"/>
    <line x1="128" y1="128" x2="512" y2="128" stroke-width="20" stroke-opacity="0.25"/>
    <line x1="896" y1="128" x2="784" y2="272" stroke-width="22" stroke-opacity="0.3"/>
    <line x1="896" y1="128" x2="512" y2="128" stroke-width="20" stroke-opacity="0.25"/>
    <line x1="400" y1="320" x2="512" y2="128" stroke-width="22" stroke-opacity="0.3"/>
    <line x1="400" y1="320" x2="240" y2="272" stroke-width="22" stroke-opacity="0.3"/>
    <line x1="400" y1="320" x2="224" y2="432" stroke-width="22" stroke-opacity="0.3"/>
    <line x1="400" y1="320" x2="624" y2="320" stroke-width="22" stroke-opacity="0.28"/>
    <line x1="624" y1="320" x2="512" y2="128" stroke-width="22" stroke-opacity="0.3"/>
    <line x1="624" y1="320" x2="784" y2="272" stroke-width="22" stroke-opacity="0.3"/>
    <line x1="624" y1="320" x2="800" y2="432" stroke-width="22" stroke-opacity="0.3"/>
    <line x1="112" y1="512" x2="224" y2="432" stroke-width="22" stroke-opacity="0.3"/>
    <line x1="112" y1="512" x2="224" y2="592" stroke-width="22" stroke-opacity="0.3"/>
    <line x1="912" y1="512" x2="800" y2="432" stroke-width="22" stroke-opacity="0.3"/>
    <line x1="912" y1="512" x2="800" y2="592" stroke-width="22" stroke-opacity="0.3"/>
    <line x1="512" y1="512" x2="400" y2="320" stroke-width="22" stroke-opacity="0.28"/>
    <line x1="512" y1="512" x2="624" y2="320" stroke-width="22" stroke-opacity="0.28"/>
    <line x1="512" y1="512" x2="224" y2="432" stroke-width="22" stroke-opacity="0.28"/>
    <line x1="512" y1="512" x2="800" y2="432" stroke-width="22" stroke-opacity="0.28"/>
    <line x1="512" y1="512" x2="224" y2="592" stroke-width="22" stroke-opacity="0.28"/>
    <line x1="512" y1="512" x2="800" y2="592" stroke-width="22" stroke-opacity="0.28"/>
    <line x1="512" y1="512" x2="400" y2="704" stroke-width="22" stroke-opacity="0.28"/>
    <line x1="512" y1="512" x2="624" y2="704" stroke-width="22" stroke-opacity="0.28"/>
    <line x1="400" y1="704" x2="512" y2="896" stroke-width="22" stroke-opacity="0.3"/>
    <line x1="400" y1="704" x2="240" y2="752" stroke-width="22" stroke-opacity="0.3"/>
    <line x1="400" y1="704" x2="224" y2="592" stroke-width="22" stroke-opacity="0.3"/>
    <line x1="400" y1="704" x2="624" y2="704" stroke-width="22" stroke-opacity="0.28"/>
    <line x1="624" y1="704" x2="512" y2="896" stroke-width="22" stroke-opacity="0.3"/>
    <line x1="624" y1="704" x2="784" y2="752" stroke-width="22" stroke-opacity="0.3"/>
    <line x1="624" y1="704" x2="800" y2="592" stroke-width="22" stroke-opacity="0.3"/>
    <line x1="128" y1="896" x2="240" y2="752" stroke-width="22" stroke-opacity="0.3"/>
    <line x1="128" y1="896" x2="512" y2="896" stroke-width="20" stroke-opacity="0.25"/>
    <line x1="896" y1="896" x2="784" y2="752" stroke-width="22" stroke-opacity="0.3"/>
    <line x1="896" y1="896" x2="512" y2="896" stroke-width="20" stroke-opacity="0.25"/>
  </g>

  <!-- Green S edges (diamond outline + S diagonal) -->
  <line class="se1" style="animation-delay:.08s" x1="512" y1="128" x2="240" y2="272" stroke="#22c55e" stroke-width="28" stroke-linecap="round" stroke-opacity="0.7" filter="url(#edgeGreenGlow1024)"/>
  <line class="se1" style="animation-delay:.08s" x1="512" y1="128" x2="784" y2="272" stroke="#22c55e" stroke-width="28" stroke-linecap="round" stroke-opacity="0.7" filter="url(#edgeGreenGlow1024)"/>
  <line class="se1" style="animation-delay:.18s" x1="240" y1="272" x2="224" y2="432" stroke="#22c55e" stroke-width="28" stroke-linecap="round" stroke-opacity="0.7" filter="url(#edgeGreenGlow1024)"/>
  <line class="se1" style="animation-delay:.18s" x1="784" y1="272" x2="800" y2="432" stroke="#22c55e" stroke-width="28" stroke-linecap="round" stroke-opacity="0.7" filter="url(#edgeGreenGlow1024)"/>
  <line class="se1" style="animation-delay:.28s" x1="224" y1="432" x2="224" y2="592" stroke="#22c55e" stroke-width="28" stroke-linecap="round" stroke-opacity="0.7" filter="url(#edgeGreenGlow1024)"/>
  <line class="se1" style="animation-delay:.28s" x1="800" y1="432" x2="800" y2="592" stroke="#22c55e" stroke-width="28" stroke-linecap="round" stroke-opacity="0.7" filter="url(#edgeGreenGlow1024)"/>
  <!-- S diagonal — upper-left through center to lower-right -->
  <line class="se1" style="animation-delay:.3s" x1="224" y1="432" x2="512" y2="512" stroke="#22c55e" stroke-width="32" stroke-linecap="round" stroke-opacity="0.7" filter="url(#edgeGreenGlow1024)"/>
  <line class="se1" style="animation-delay:.38s" x1="512" y1="512" x2="800" y2="592" stroke="#22c55e" stroke-width="32" stroke-linecap="round" stroke-opacity="0.7" filter="url(#edgeGreenGlow1024)"/>
  <line class="se1" style="animation-delay:.46s" x1="224" y1="592" x2="240" y2="752" stroke="#22c55e" stroke-width="28" stroke-linecap="round" stroke-opacity="0.7" filter="url(#edgeGreenGlow1024)"/>
  <line class="se1" style="animation-delay:.46s" x1="800" y1="592" x2="784" y2="752" stroke="#22c55e" stroke-width="28" stroke-linecap="round" stroke-opacity="0.7" filter="url(#edgeGreenGlow1024)"/>
  <line class="se1" style="animation-delay:.56s" x1="240" y1="752" x2="512" y2="896" stroke="#22c55e" stroke-width="28" stroke-linecap="round" stroke-opacity="0.7" filter="url(#edgeGreenGlow1024)"/>
  <line class="se1" style="animation-delay:.56s" x1="784" y1="752" x2="512" y2="896" stroke="#22c55e" stroke-width="28" stroke-linecap="round" stroke-opacity="0.7" filter="url(#edgeGreenGlow1024)"/>

  <!-- Grey nodes -->
  <circle cx="128" cy="128" r="36" fill="#e8ecf0" fill-opacity="0.4" filter="url(#greyGlow1024)"/>
  <circle cx="128" cy="128" r="18" fill="#eff1f3"/><circle cx="128" cy="128" r="8" fill="#f8f9fa"/>

  <circle cx="896" cy="128" r="36" fill="#e8ecf0" fill-opacity="0.4" filter="url(#greyGlow1024)"/>
  <circle cx="896" cy="128" r="18" fill="#eff1f3"/><circle cx="896" cy="128" r="8" fill="#f8f9fa"/>

  <circle cx="400" cy="320" r="42" fill="#e8ecf0" fill-opacity="0.45" filter="url(#greyGlow1024)"/>
  <circle cx="400" cy="320" r="22" fill="#f2f4f5"/><circle cx="400" cy="320" r="11" fill="#f8f9fa"/>

  <circle cx="624" cy="320" r="42" fill="#e8ecf0" fill-opacity="0.45" filter="url(#greyGlow1024)"/>
  <circle cx="624" cy="320" r="22" fill="#f2f4f5"/><circle cx="624" cy="320" r="11" fill="#f8f9fa"/>

  <circle cx="112" cy="512" r="36" fill="#e8ecf0" fill-opacity="0.4" filter="url(#greyGlow1024)"/>
  <circle cx="112" cy="512" r="18" fill="#eff1f3"/><circle cx="112" cy="512" r="8" fill="#f8f9fa"/>

  <!-- Center hub (green, glowing) -->
  <g class="sn1" style="animation-delay:.34s" filter="url(#greenGlow1024)">
    <circle cx="512" cy="512" r="76" fill="#22c55e" fill-opacity="0.22"/>
    <circle cx="512" cy="512" r="52" fill="#22c55e"/>
    <circle cx="512" cy="512" r="28" fill="#86efac"/>
  </g>

  <circle cx="912" cy="512" r="36" fill="#e8ecf0" fill-opacity="0.4" filter="url(#greyGlow1024)"/>
  <circle cx="912" cy="512" r="18" fill="#eff1f3"/><circle cx="912" cy="512" r="8" fill="#f8f9fa"/>

  <circle cx="400" cy="704" r="42" fill="#e8ecf0" fill-opacity="0.45" filter="url(#greyGlow1024)"/>
  <circle cx="400" cy="704" r="22" fill="#f2f4f5"/><circle cx="400" cy="704" r="11" fill="#f8f9fa"/>

  <circle cx="624" cy="704" r="42" fill="#e8ecf0" fill-opacity="0.45" filter="url(#greyGlow1024)"/>
  <circle cx="624" cy="704" r="22" fill="#f2f4f5"/><circle cx="624" cy="704" r="11" fill="#f8f9fa"/>

  <circle cx="128" cy="896" r="36" fill="#e8ecf0" fill-opacity="0.4" filter="url(#greyGlow1024)"/>
  <circle cx="128" cy="896" r="18" fill="#eff1f3"/><circle cx="128" cy="896" r="8" fill="#f8f9fa"/>

  <circle cx="896" cy="896" r="36" fill="#e8ecf0" fill-opacity="0.4" filter="url(#greyGlow1024)"/>
  <circle cx="896" cy="896" r="18" fill="#eff1f3"/><circle cx="896" cy="896" r="8" fill="#f8f9fa"/>

  <!-- Green S nodes -->
  <g class="sn1" style="animation-delay:.05s" filter="url(#greenGlow1024)">
    <circle cx="512" cy="128" r="48" fill="#22c55e" fill-opacity="0.18"/>
    <circle cx="512" cy="128" r="32" fill="#22c55e"/>
    <circle cx="512" cy="128" r="16" fill="#86efac"/>
  </g>
  <g class="sn1" style="animation-delay:.12s" filter="url(#greenGlow1024)">
    <circle cx="240" cy="272" r="38" fill="#22c55e" fill-opacity="0.18"/>
    <circle cx="240" cy="272" r="25" fill="#22c55e"/>
    <circle cx="240" cy="272" r="12" fill="#86efac"/>
  </g>
  <g class="sn1" style="animation-delay:.12s" filter="url(#greenGlow1024)">
    <circle cx="784" cy="272" r="38" fill="#22c55e" fill-opacity="0.18"/>
    <circle cx="784" cy="272" r="25" fill="#22c55e"/>
    <circle cx="784" cy="272" r="12" fill="#86efac"/>
  </g>
  <g class="sn1" style="animation-delay:.22s" filter="url(#greenGlow1024)">
    <circle cx="224" cy="432" r="38" fill="#22c55e" fill-opacity="0.18"/>
    <circle cx="224" cy="432" r="25" fill="#22c55e"/>
    <circle cx="224" cy="432" r="12" fill="#86efac"/>
  </g>
  <g class="sn1" style="animation-delay:.22s" filter="url(#greenGlow1024)">
    <circle cx="800" cy="432" r="38" fill="#22c55e" fill-opacity="0.18"/>
    <circle cx="800" cy="432" r="25" fill="#22c55e"/>
    <circle cx="800" cy="432" r="12" fill="#86efac"/>
  </g>
  <g class="sn1" style="animation-delay:.36s" filter="url(#greenGlow1024)">
    <circle cx="224" cy="592" r="38" fill="#22c55e" fill-opacity="0.18"/>
    <circle cx="224" cy="592" r="25" fill="#22c55e"/>
    <circle cx="224" cy="592" r="12" fill="#86efac"/>
  </g>
  <g class="sn1" style="animation-delay:.36s" filter="url(#greenGlow1024)">
    <circle cx="800" cy="592" r="38" fill="#22c55e" fill-opacity="0.18"/>
    <circle cx="800" cy="592" r="25" fill="#22c55e"/>
    <circle cx="800" cy="592" r="12" fill="#86efac"/>
  </g>
  <g class="sn1" style="animation-delay:.46s" filter="url(#greenGlow1024)">
    <circle cx="240" cy="752" r="38" fill="#22c55e" fill-opacity="0.18"/>
    <circle cx="240" cy="752" r="25" fill="#22c55e"/>
    <circle cx="240" cy="752" r="12" fill="#86efac"/>
  </g>
  <g class="sn1" style="animation-delay:.46s" filter="url(#greenGlow1024)">
    <circle cx="784" cy="752" r="38" fill="#22c55e" fill-opacity="0.18"/>
    <circle cx="784" cy="752" r="25" fill="#22c55e"/>
    <circle cx="784" cy="752" r="12" fill="#86efac"/>
  </g>
  <g class="sn1" style="animation-delay:.56s" filter="url(#greenGlow1024)">
    <circle cx="512" cy="896" r="48" fill="#22c55e" fill-opacity="0.18"/>
    <circle cx="512" cy="896" r="32" fill="#22c55e"/>
    <circle cx="512" cy="896" r="16" fill="#86efac"/>
  </g>
</svg>
