<svg xmlns="http://www.w3.org/2000/svg" width="128" height="128" viewBox="0 0 128 128" role="img" aria-label="Synapse logo mark">
  <defs>
    <filter id="greyGlow">
      <feGaussianBlur stdDeviation="2.5" result="blur"/>
      <feMerge><feMergeNode in="blur"/><feMergeNode in="SourceGraphic"/></feMerge>
    </filter>
    <filter id="greyEdgeGlow">
      <feGaussianBlur stdDeviation="2" result="blur"/>
      <feMerge><feMergeNode in="blur"/><feMergeNode in="SourceGraphic"/></feMerge>
    </filter>
    <filter id="greenGlow">
      <feGaussianBlur stdDeviation="2.5" result="blur"/>
      <feMerge><feMergeNode in="blur"/><feMergeNode in="SourceGraphic"/></feMerge>
    </filter>
    <filter id="edgeGreenGlow">
      <feGaussianBlur stdDeviation="1.5" result="blur"/>
      <feMerge><feMergeNode in="blur"/><feMergeNode in="SourceGraphic"/></feMerge>
    </filter>
    <style>
      .sn,.se{animation:pulseGreen 2.6s ease-in-out infinite}
      .pn{animation:shimmer 3.2s ease-in-out infinite}
      .pe{animation:pulsePurpleEdge 4s ease-in-out infinite}
      @keyframes pulseGreen{0%,100%{opacity:1}50%{opacity:0.45}}
      @keyframes shimmer{0%,100%{opacity:0.3}50%{opacity:1}}
      @keyframes pulsePurpleEdge{0%,100%{opacity:0.7}50%{opacity:1}}
    </style>
  </defs>

  <rect x="8" y="8" width="112" height="112" rx="24" fill="#ffffff" fill-opacity="0.02"/>

  <!-- Purple edges (background network) -->
  <g class="pe" stroke="#9b7cf0" stroke-linecap="round" filter="url(#greyEdgeGlow)">
    <line x1="16" y1="16" x2="30" y2="34" stroke-width="3" stroke-opacity="0.55"/>
    <line x1="16" y1="16" x2="64" y2="16" stroke-width="2.8" stroke-opacity="0.5"/>
    <line x1="112" y1="16" x2="98" y2="34" stroke-width="3" stroke-opacity="0.55"/>
    <line x1="112" y1="16" x2="64" y2="16" stroke-width="2.8" stroke-opacity="0.5"/>
    <line x1="50" y1="40" x2="64" y2="16" stroke-width="3.2" stroke-opacity="0.55"/>
    <line x1="50" y1="40" x2="30" y2="34" stroke-width="3.2" stroke-opacity="0.55"/>
    <line x1="50" y1="40" x2="28" y2="54" stroke-width="3.2" stroke-opacity="0.55"/>
    <line x1="50" y1="40" x2="78" y2="40" stroke-width="3.2" stroke-opacity="0.53"/>
    <line x1="78" y1="40" x2="64" y2="16" stroke-width="3.2" stroke-opacity="0.55"/>
    <line x1="78" y1="40" x2="98" y2="34" stroke-width="3.2" stroke-opacity="0.55"/>
    <line x1="78" y1="40" x2="100" y2="54" stroke-width="3.2" stroke-opacity="0.55"/>
    <line x1="14" y1="64" x2="28" y2="54" stroke-width="3" stroke-opacity="0.55"/>
    <line x1="14" y1="64" x2="28" y2="74" stroke-width="3" stroke-opacity="0.55"/>
    <line x1="114" y1="64" x2="100" y2="54" stroke-width="3" stroke-opacity="0.55"/>
    <line x1="114" y1="64" x2="100" y2="74" stroke-width="3" stroke-opacity="0.55"/>
    <line x1="64" y1="64" x2="50" y2="40" stroke-width="3" stroke-opacity="0.53"/>
    <line x1="64" y1="64" x2="78" y2="40" stroke-width="3" stroke-opacity="0.53"/>
    <line x1="64" y1="64" x2="28" y2="54" stroke-width="3" stroke-opacity="0.53"/>
    <line x1="64" y1="64" x2="100" y2="54" stroke-width="3" stroke-opacity="0.53"/>
    <line x1="64" y1="64" x2="28" y2="74" stroke-width="3" stroke-opacity="0.53"/>
    <line x1="64" y1="64" x2="100" y2="74" stroke-width="3" stroke-opacity="0.53"/>
    <line x1="64" y1="64" x2="50" y2="88" stroke-width="3" stroke-opacity="0.53"/>
    <line x1="64" y1="64" x2="78" y2="88" stroke-width="3" stroke-opacity="0.53"/>
    <line x1="50" y1="88" x2="64" y2="112" stroke-width="3.2" stroke-opacity="0.55"/>
    <line x1="50" y1="88" x2="30" y2="94" stroke-width="3.2" stroke-opacity="0.55"/>
    <line x1="50" y1="88" x2="28" y2="74" stroke-width="3.2" stroke-opacity="0.55"/>
    <line x1="50" y1="88" x2="78" y2="88" stroke-width="3.2" stroke-opacity="0.53"/>
    <line x1="78" y1="88" x2="64" y2="112" stroke-width="3.2" stroke-opacity="0.55"/>
    <line x1="78" y1="88" x2="98" y2="94" stroke-width="3.2" stroke-opacity="0.55"/>
    <line x1="78" y1="88" x2="100" y2="74" stroke-width="3.2" stroke-opacity="0.55"/>
    <line x1="16" y1="112" x2="30" y2="94" stroke-width="3" stroke-opacity="0.55"/>
    <line x1="16" y1="112" x2="64" y2="112" stroke-width="2.8" stroke-opacity="0.5"/>
    <line x1="112" y1="112" x2="98" y2="94" stroke-width="3" stroke-opacity="0.55"/>
    <line x1="112" y1="112" x2="64" y2="112" stroke-width="2.8" stroke-opacity="0.5"/>
  </g>

  <!-- Green S edges -->
  <line class="se" x1="64" y1="16" x2="30" y2="34" stroke="#22c55e" stroke-width="4" stroke-linecap="round" stroke-opacity="0.7" filter="url(#edgeGreenGlow)"/>
  <line class="se" x1="64" y1="16" x2="98" y2="34" stroke="#22c55e" stroke-width="4" stroke-linecap="round" stroke-opacity="0.7" filter="url(#edgeGreenGlow)"/>
  <line class="se" x1="30" y1="34" x2="28" y2="54" stroke="#22c55e" stroke-width="4" stroke-linecap="round" stroke-opacity="0.7" filter="url(#edgeGreenGlow)"/>
  <line class="se" x1="98" y1="34" x2="100" y2="54" stroke="#22c55e" stroke-width="4" stroke-linecap="round" stroke-opacity="0.7" filter="url(#edgeGreenGlow)"/>
  <line class="se" x1="28" y1="54" x2="28" y2="74" stroke="#22c55e" stroke-width="4" stroke-linecap="round" stroke-opacity="0.7" filter="url(#edgeGreenGlow)"/>
  <line class="se" x1="100" y1="54" x2="100" y2="74" stroke="#22c55e" stroke-width="4" stroke-linecap="round" stroke-opacity="0.7" filter="url(#edgeGreenGlow)"/>
  <line class="se" x1="28" y1="54" x2="64" y2="64" stroke="#22c55e" stroke-width="4.5" stroke-linecap="round" stroke-opacity="0.7" filter="url(#edgeGreenGlow)"/>
  <line class="se" x1="64" y1="64" x2="100" y2="74" stroke="#22c55e" stroke-width="4.5" stroke-linecap="round" stroke-opacity="0.7" filter="url(#edgeGreenGlow)"/>
  <line class="se" x1="28" y1="74" x2="30" y2="94" stroke="#22c55e" stroke-width="4" stroke-linecap="round" stroke-opacity="0.7" filter="url(#edgeGreenGlow)"/>
  <line class="se" x1="100" y1="74" x2="98" y2="94" stroke="#22c55e" stroke-width="4" stroke-linecap="round" stroke-opacity="0.7" filter="url(#edgeGreenGlow)"/>
  <line class="se" x1="30" y1="94" x2="64" y2="112" stroke="#22c55e" stroke-width="4" stroke-linecap="round" stroke-opacity="0.7" filter="url(#edgeGreenGlow)"/>
  <line class="se" x1="98" y1="94" x2="64" y2="112" stroke="#22c55e" stroke-width="4" stroke-linecap="round" stroke-opacity="0.7" filter="url(#edgeGreenGlow)"/>

  <!-- Purple nodes (each shimmers on its own staggered delay) -->
  <g class="pn" style="animation-delay:-0s">
    <circle cx="16" cy="16" r="4.5" fill="#9b7cf0" fill-opacity="0.65" filter="url(#greyGlow)"/>
    <circle cx="16" cy="16" r="2.8" fill="#9b7cf0"/><circle cx="16" cy="16" r="1.2" fill="#c4b5fd"/>
  </g>
  <g class="pn" style="animation-delay:-1.4s">
    <circle cx="112" cy="16" r="4.5" fill="#9b7cf0" fill-opacity="0.65" filter="url(#greyGlow)"/>
    <circle cx="112" cy="16" r="2.8" fill="#9b7cf0"/><circle cx="112" cy="16" r="1.2" fill="#c4b5fd"/>
  </g>
  <g class="pn" style="animation-delay:-0.6s">
    <circle cx="50" cy="40" r="5.5" fill="#9b7cf0" fill-opacity="0.7" filter="url(#greyGlow)"/>
    <circle cx="50" cy="40" r="3.5" fill="#9b7cf0"/><circle cx="50" cy="40" r="1.6" fill="#c4b5fd"/>
  </g>
  <g class="pn" style="animation-delay:-2.1s">
    <circle cx="78" cy="40" r="5.5" fill="#9b7cf0" fill-opacity="0.7" filter="url(#greyGlow)"/>
    <circle cx="78" cy="40" r="3.5" fill="#9b7cf0"/><circle cx="78" cy="40" r="1.6" fill="#c4b5fd"/>
  </g>
  <g class="pn" style="animation-delay:-2.5s">
    <circle cx="14" cy="64" r="4.5" fill="#9b7cf0" fill-opacity="0.65" filter="url(#greyGlow)"/>
    <circle cx="14" cy="64" r="2.8" fill="#9b7cf0"/><circle cx="14" cy="64" r="1.2" fill="#c4b5fd"/>
  </g>
  <g class="pn" style="animation-delay:-0.9s">
    <circle cx="114" cy="64" r="4.5" fill="#9b7cf0" fill-opacity="0.65" filter="url(#greyGlow)"/>
    <circle cx="114" cy="64" r="2.8" fill="#9b7cf0"/><circle cx="114" cy="64" r="1.2" fill="#c4b5fd"/>
  </g>
  <g class="pn" style="animation-delay:-1.7s">
    <circle cx="50" cy="88" r="5.5" fill="#9b7cf0" fill-opacity="0.7" filter="url(#greyGlow)"/>
    <circle cx="50" cy="88" r="3.5" fill="#9b7cf0"/><circle cx="50" cy="88" r="1.6" fill="#c4b5fd"/>
  </g>
  <g class="pn" style="animation-delay:-0.3s">
    <circle cx="78" cy="88" r="5.5" fill="#9b7cf0" fill-opacity="0.7" filter="url(#greyGlow)"/>
    <circle cx="78" cy="88" r="3.5" fill="#9b7cf0"/><circle cx="78" cy="88" r="1.6" fill="#c4b5fd"/>
  </g>
  <g class="pn" style="animation-delay:-2.8s">
    <circle cx="16" cy="112" r="4.5" fill="#9b7cf0" fill-opacity="0.65" filter="url(#greyGlow)"/>
    <circle cx="16" cy="112" r="2.8" fill="#9b7cf0"/><circle cx="16" cy="112" r="1.2" fill="#c4b5fd"/>
  </g>
  <g class="pn" style="animation-delay:-1.1s">
    <circle cx="112" cy="112" r="4.5" fill="#9b7cf0" fill-opacity="0.65" filter="url(#greyGlow)"/>
    <circle cx="112" cy="112" r="2.8" fill="#9b7cf0"/><circle cx="112" cy="112" r="1.2" fill="#c4b5fd"/>
  </g>

  <!-- Center hub (green, glowing) -->
  <g class="sn" filter="url(#greenGlow)">
    <circle cx="64" cy="64" r="10" fill="#22c55e" fill-opacity="0.25"/>
    <circle cx="64" cy="64" r="6.5" fill="#22c55e"/>
    <circle cx="64" cy="64" r="3.5" fill="#86efac"/>
  </g>

  <!-- Green S nodes -->
  <g class="sn" filter="url(#greenGlow)">
    <circle cx="64" cy="16" r="6" fill="#22c55e" fill-opacity="0.2"/>
    <circle cx="64" cy="16" r="4" fill="#22c55e"/>
    <circle cx="64" cy="16" r="2" fill="#86efac"/>
  </g>
  <g class="sn" filter="url(#greenGlow)">
    <circle cx="30" cy="34" r="5" fill="#22c55e" fill-opacity="0.2"/>
    <circle cx="30" cy="34" r="3.2" fill="#22c55e"/>
    <circle cx="30" cy="34" r="1.6" fill="#86efac"/>
  </g>
  <g class="sn" filter="url(#greenGlow)">
    <circle cx="98" cy="34" r="5" fill="#22c55e" fill-opacity="0.2"/>
    <circle cx="98" cy="34" r="3.2" fill="#22c55e"/>
    <circle cx="98" cy="34" r="1.6" fill="#86efac"/>
  </g>
  <g class="sn" filter="url(#greenGlow)">
    <circle cx="28" cy="54" r="5" fill="#22c55e" fill-opacity="0.2"/>
    <circle cx="28" cy="54" r="3.2" fill="#22c55e"/>
    <circle cx="28" cy="54" r="1.6" fill="#86efac"/>
  </g>
  <g class="sn" filter="url(#greenGlow)">
    <circle cx="100" cy="54" r="5" fill="#22c55e" fill-opacity="0.2"/>
    <circle cx="100" cy="54" r="3.2" fill="#22c55e"/>
    <circle cx="100" cy="54" r="1.6" fill="#86efac"/>
  </g>
  <g class="sn" filter="url(#greenGlow)">
    <circle cx="28" cy="74" r="5" fill="#22c55e" fill-opacity="0.2"/>
    <circle cx="28" cy="74" r="3.2" fill="#22c55e"/>
    <circle cx="28" cy="74" r="1.6" fill="#86efac"/>
  </g>
  <g class="sn" filter="url(#greenGlow)">
    <circle cx="100" cy="74" r="5" fill="#22c55e" fill-opacity="0.2"/>
    <circle cx="100" cy="74" r="3.2" fill="#22c55e"/>
    <circle cx="100" cy="74" r="1.6" fill="#86efac"/>
  </g>
  <g class="sn" filter="url(#greenGlow)">
    <circle cx="30" cy="94" r="5" fill="#22c55e" fill-opacity="0.2"/>
    <circle cx="30" cy="94" r="3.2" fill="#22c55e"/>
    <circle cx="30" cy="94" r="1.6" fill="#86efac"/>
  </g>
  <g class="sn" filter="url(#greenGlow)">
    <circle cx="98" cy="94" r="5" fill="#22c55e" fill-opacity="0.2"/>
    <circle cx="98" cy="94" r="3.2" fill="#22c55e"/>
    <circle cx="98" cy="94" r="1.6" fill="#86efac"/>
  </g>
  <g class="sn" filter="url(#greenGlow)">
    <circle cx="64" cy="112" r="6" fill="#22c55e" fill-opacity="0.2"/>
    <circle cx="64" cy="112" r="4" fill="#22c55e"/>
    <circle cx="64" cy="112" r="2" fill="#86efac"/>
  </g>
</svg>
